<svg width="96" height="89" viewBox="0 0 96 89" fill="none" xmlns="http://www.w3.org/2000/svg">
<g clip-path="url(#clip0_193_719)">
<path d="M44.0161 1.83569H27.1289V86.4653H44.0161V1.83569Z" fill="white" style="fill:white;fill-opacity:1;"/>
<path d="M60.9018 1.83569H50.7695V86.4653H60.9018V1.83569Z" fill="white" style="fill:white;fill-opacity:1;"/>
<path d="M42.3242 52.6913V86.4657H84.5379L89.6083 81.3953V52.6913H77.7831V44.2519L69.3437 40.8745V69.5785H60.9043V52.6913H42.3242Z" fill="white" style="fill:white;fill-opacity:1;"/>
<path d="M77.4266 86.4657C79.5587 86.4879 81.6743 86.0898 83.6525 85.2941C85.6307 84.4984 87.4328 83.3208 88.9557 81.8284C90.4786 80.336 91.6925 78.5581 92.528 76.5965C93.3636 74.6348 93.8044 72.5276 93.8253 70.3955C84.3331 71.2378 67.0669 71.2378 61.0195 70.3955C61.0795 74.6913 62.8402 78.7881 65.9157 81.7878C68.9912 84.7876 73.1307 86.4456 77.4266 86.3983" fill="#87BD24" style="fill:#87BD24;fill:color(display-p3 0.5294 0.7412 0.1412);fill-opacity:1;"/>
<path d="M6.03241 87.7203C5.97623 82.56 7.97071 77.5885 11.5777 73.8977C15.1847 70.207 20.1092 68.0991 25.2695 68.0369C30.4348 68.0924 35.3667 70.1972 38.9805 73.8884C42.5943 77.5796 44.5941 82.5549 44.5402 87.7203" fill="#87BD24" style="fill:#87BD24;fill:color(display-p3 0.5294 0.7412 0.1412);fill-opacity:1;"/>
<path d="M6.03241 87.7203C5.97623 82.56 7.97071 77.5885 11.5777 73.8977C15.1847 70.207 20.1092 68.0991 25.2695 68.0369C30.4348 68.0924 35.3667 70.1972 38.9805 73.8884C42.5943 77.5796 44.5941 82.5549 44.5402 87.7203" stroke="#2F4C56" style="stroke:#2F4C56;stroke:color(display-p3 0.1843 0.2980 0.3373);stroke-opacity:1;" stroke-width="2.17301" stroke-linejoin="round"/>
<path d="M0 87.3248H96" stroke="#2F4C56" style="stroke:#2F4C56;stroke:color(display-p3 0.1843 0.2980 0.3373);stroke-opacity:1;" stroke-width="2.2067" stroke-linejoin="round"/>
<path d="M44.5624 52.6323V1.57495H26.7656V67.8855" stroke="#2F4C56" style="stroke:#2F4C56;stroke:color(display-p3 0.1843 0.2980 0.3373);stroke-opacity:1;" stroke-width="2.17301" stroke-linejoin="round"/>
<path d="M60.5001 54.3758V1.57495H51.168V52.6829" stroke="#2F4C56" style="stroke:#2F4C56;stroke:color(display-p3 0.1843 0.2980 0.3373);stroke-opacity:1;" stroke-width="2.17301" stroke-linejoin="round"/>
<path d="M77.7311 64.8788V43.3255L68.2305 39.0132V70.6229" stroke="#2F4C56" style="stroke:#2F4C56;stroke:color(display-p3 0.1843 0.2980 0.3373);stroke-opacity:1;" stroke-width="2.17301" stroke-linejoin="round"/>
<path d="M55.8672 4.29541V9.27313" stroke="#2F4C56" style="stroke:#2F4C56;stroke:color(display-p3 0.1843 0.2980 0.3373);stroke-opacity:1;" stroke-width="2.17301" stroke-linejoin="round"/>
<path d="M55.8672 29.1587V34.128" stroke="#2F4C56" style="stroke:#2F4C56;stroke:color(display-p3 0.1843 0.2980 0.3373);stroke-opacity:1;" stroke-width="2.17301" stroke-linejoin="round"/>
<path d="M31.3398 54.3679V59.3456" stroke="#2F4C56" style="stroke:#2F4C56;stroke:color(display-p3 0.1843 0.2980 0.3373);stroke-opacity:1;" stroke-width="2.17301" stroke-linejoin="round"/>
<path d="M31.3398 63.0339V69.3677" stroke="#2F4C56" style="stroke:#2F4C56;stroke:color(display-p3 0.1843 0.2980 0.3373);stroke-opacity:1;" stroke-width="2.17301" stroke-linejoin="round"/>
<path d="M55.8672 12.5918V17.5695" stroke="#2F4C56" style="stroke:#2F4C56;stroke:color(display-p3 0.1843 0.2980 0.3373);stroke-opacity:1;" stroke-width="2.17301" stroke-linejoin="round"/>
<path d="M55.8672 37.446V42.4238" stroke="#2F4C56" style="stroke:#2F4C56;stroke:color(display-p3 0.1843 0.2980 0.3373);stroke-opacity:1;" stroke-width="2.17301" stroke-linejoin="round"/>
<path d="M31.3398 4.29541V9.27313" stroke="#2F4C56" style="stroke:#2F4C56;stroke:color(display-p3 0.1843 0.2980 0.3373);stroke-opacity:1;" stroke-width="2.17301" stroke-linejoin="round"/>
<path d="M39.4258 4.29541V9.27313" stroke="#2F4C56" style="stroke:#2F4C56;stroke:color(display-p3 0.1843 0.2980 0.3373);stroke-opacity:1;" stroke-width="2.17301" stroke-linejoin="round"/>
<path d="M31.3398 12.5918V17.5695" stroke="#2F4C56" style="stroke:#2F4C56;stroke:color(display-p3 0.1843 0.2980 0.3373);stroke-opacity:1;" stroke-width="2.17301" stroke-linejoin="round"/>
<path d="M39.4258 12.5917V17.5694" stroke="#2F4C56" style="stroke:#2F4C56;stroke:color(display-p3 0.1843 0.2980 0.3373);stroke-opacity:1;" stroke-width="2.17301" stroke-linejoin="round"/>
<path d="M31.3398 20.8884V25.8577" stroke="#2F4C56" style="stroke:#2F4C56;stroke:color(display-p3 0.1843 0.2980 0.3373);stroke-opacity:1;" stroke-width="2.17301" stroke-linejoin="round"/>
<path d="M39.4258 20.8884V25.8577" stroke="#2F4C56" style="stroke:#2F4C56;stroke:color(display-p3 0.1843 0.2980 0.3373);stroke-opacity:1;" stroke-width="2.17301" stroke-linejoin="round"/>
<path d="M31.3398 29.1587V34.128" stroke="#2F4C56" style="stroke:#2F4C56;stroke:color(display-p3 0.1843 0.2980 0.3373);stroke-opacity:1;" stroke-width="2.17301" stroke-linejoin="round"/>
<path d="M39.4258 29.1588V34.1281" stroke="#2F4C56" style="stroke:#2F4C56;stroke:color(display-p3 0.1843 0.2980 0.3373);stroke-opacity:1;" stroke-width="2.17301" stroke-linejoin="round"/>
<path d="M31.3398 37.4551V42.4244" stroke="#2F4C56" style="stroke:#2F4C56;stroke:color(display-p3 0.1843 0.2980 0.3373);stroke-opacity:1;" stroke-width="2.17301" stroke-linejoin="round"/>
<path d="M39.4258 37.4551V42.4244" stroke="#2F4C56" style="stroke:#2F4C56;stroke:color(display-p3 0.1843 0.2980 0.3373);stroke-opacity:1;" stroke-width="2.17301" stroke-linejoin="round"/>
<path d="M31.3398 45.7429V50.7206" stroke="#2F4C56" style="stroke:#2F4C56;stroke:color(display-p3 0.1843 0.2980 0.3373);stroke-opacity:1;" stroke-width="2.17301" stroke-linejoin="round"/>
<path d="M39.4258 45.7429V50.7206" stroke="#2F4C56" style="stroke:#2F4C56;stroke:color(display-p3 0.1843 0.2980 0.3373);stroke-opacity:1;" stroke-width="2.17301" stroke-linejoin="round"/>
<path d="M55.8672 20.8884V25.8577" stroke="#2F4C56" style="stroke:#2F4C56;stroke:color(display-p3 0.1843 0.2980 0.3373);stroke-opacity:1;" stroke-width="2.17301" stroke-linejoin="round"/>
<path d="M55.8672 45.7429V50.7206" stroke="#2F4C56" style="stroke:#2F4C56;stroke:color(display-p3 0.1843 0.2980 0.3373);stroke-opacity:1;" stroke-width="2.17301" stroke-linejoin="round"/>
<path d="M35.0547 71.2377V53.5504H60.4992V70.724C60.4866 72.9329 60.9148 75.1221 61.7587 77.1635C62.6026 79.2049 63.8452 81.0575 65.4138 82.6128C66.9825 84.1681 68.8456 85.3949 70.8941 86.2213C72.9427 87.0477 75.1355 87.4572 77.3442 87.4258C86.7522 87.4258 94.3325 79.3149 94.3325 70.7155H59.1768" stroke="#2F4C56" style="stroke:#2F4C56;stroke:color(display-p3 0.1843 0.2980 0.3373);stroke-opacity:1;" stroke-width="2.17301" stroke-linejoin="round"/>
<path d="M60.954 62.209H41.4727" stroke="#2F4C56" style="stroke:#2F4C56;stroke:color(display-p3 0.1843 0.2980 0.3373);stroke-opacity:1;" stroke-width="2.17301" stroke-linejoin="round"/>
<path d="M60.9546 70.5808H45.6172" stroke="#2F4C56" style="stroke:#2F4C56;stroke:color(display-p3 0.1843 0.2980 0.3373);stroke-opacity:1;" stroke-width="2.17301" stroke-linejoin="round"/>
<path d="M76.7109 53.5254H90.1701V71.2632" stroke="#2F4C56" style="stroke:#2F4C56;stroke:color(display-p3 0.1843 0.2980 0.3373);stroke-opacity:1;" stroke-width="2.17301" stroke-linejoin="round"/>
<path d="M18.9102 87.7209V76.5273" stroke="#2F4C56" style="stroke:#2F4C56;stroke:color(display-p3 0.1843 0.2980 0.3373);stroke-opacity:1;" stroke-width="2.17301" stroke-linejoin="round"/>
<path d="M24.8789 78.9529H29.8566" stroke="#2F4C56" style="stroke:#2F4C56;stroke:color(display-p3 0.1843 0.2980 0.3373);stroke-opacity:1;" stroke-width="2.17301" stroke-linejoin="round"/>
<mask id="mask0_193_719" style="mask-type:luminance" maskUnits="userSpaceOnUse" x="68" y="39" width="23" height="32">
<path d="M68.3242 70.7659H90.3407V53.466H77.9259L77.7153 43.4432L68.3242 39.8552V70.7659Z" fill="white" style="fill:white;fill-opacity:1;"/>
</mask>
<g mask="url(#mask0_193_719)">
<path d="M241.256 -53.475L64.2737 148.464M234.24 -53.475L57.2746 148.464M227.216 -53.475L50.2334 148.464M220.2 -53.475L42.0551 150.805M213.192 -53.475L35.0391 150.805M206.168 -53.475L28.0232 150.805M199.144 -53.475L20.9988 150.805M191.134 -53.7024L12.9805 150.578M184.101 -53.7024L5.96454 150.578M177.085 -53.7024L-1.05985 150.578M170.069 -53.7024L-8.06739 150.578M164.064 -53.475L-14.0895 150.805M157.048 -53.475L-21.1055 150.805" stroke="#2F4C56" style="stroke:#2F4C56;stroke:color(display-p3 0.1843 0.2980 0.3373);stroke-opacity:1;" stroke-width="1.10335" stroke-miterlimit="10"/>
</g>
</g>
<defs>
<clipPath id="clip0_193_719">
<rect width="96" height="88.0239" fill="white" style="fill:white;fill-opacity:1;" transform="translate(0 0.488037)"/>
</clipPath>
</defs>
</svg>
