<svg width="30" height="30" viewBox="0 0 30 30" fill="none" xmlns="http://www.w3.org/2000/svg">
<circle cx="15" cy="15" r="15" fill="#53AAF2" style="fill:#53AAF2;fill:color(display-p3 0.3255 0.6667 0.9490);fill-opacity:1;"/>
<g clip-path="url(#clip0_193_986)">
<path fill-rule="evenodd" clip-rule="evenodd" d="M15.75 9C15.9337 9.00002 16.111 9.06747 16.2483 9.18954C16.3856 9.31161 16.4733 9.47981 16.4947 9.66225L16.5 9.75C16.5002 9.94116 16.5734 10.125 16.7046 10.264C16.8359 10.403 17.0152 10.4867 17.206 10.4979C17.3969 10.5091 17.5848 10.447 17.7314 10.3243C17.878 10.2016 17.9722 10.0276 17.9947 9.83775L18 9.75C18 9.55109 18.079 9.36032 18.2197 9.21967C18.3603 9.07902 18.5511 9 18.75 9H20.25C20.8467 9 21.419 9.23705 21.841 9.65901C22.2629 10.081 22.5 10.6533 22.5 11.25V18.75C22.5 19.3467 22.2629 19.919 21.841 20.341C21.419 20.7629 20.8467 21 20.25 21H18.75C18.5663 21 18.389 20.9325 18.2517 20.8105C18.1144 20.6884 18.0267 20.5202 18.0052 20.3377L18 20.25C17.9998 20.0588 17.9266 19.875 17.7954 19.736C17.6641 19.597 17.4848 19.5133 17.294 19.5021C17.1031 19.4909 16.9152 19.553 16.7686 19.6757C16.622 19.7984 16.5278 19.9724 16.5052 20.1622L16.5 20.25C16.5 20.4489 16.421 20.6397 16.2803 20.7803C16.1397 20.921 15.9489 21 15.75 21H9.75C9.15326 21 8.58097 20.7629 8.15901 20.341C7.73705 19.919 7.5 19.3467 7.5 18.75V11.25C7.5 10.6533 7.73705 10.081 8.15901 9.65901C8.58097 9.23705 9.15326 9 9.75 9H15.75ZM17.25 15.75C17.0511 15.75 16.8603 15.829 16.7197 15.9697C16.579 16.1103 16.5 16.3011 16.5 16.5V17.25C16.5 17.4489 16.579 17.6397 16.7197 17.7803C16.8603 17.921 17.0511 18 17.25 18C17.4489 18 17.6397 17.921 17.7803 17.7803C17.921 17.6397 18 17.4489 18 17.25V16.5C18 16.3011 17.921 16.1103 17.7803 15.9697C17.6397 15.829 17.4489 15.75 17.25 15.75ZM17.25 12C17.0663 12 16.889 12.0675 16.7517 12.1895C16.6144 12.3116 16.5267 12.4798 16.5052 12.6622L16.5 12.75V13.5C16.5002 13.6912 16.5734 13.875 16.7046 14.014C16.8359 14.153 17.0152 14.2367 17.206 14.2479C17.3969 14.2591 17.5848 14.197 17.7314 14.0743C17.878 13.9516 17.9722 13.7776 17.9947 13.5877L18 13.5V12.75C18 12.5511 17.921 12.3603 17.7803 12.2197C17.6397 12.079 17.4489 12 17.25 12Z" fill="white" style="fill:white;fill-opacity:1;"/>
</g>
<defs>
<clipPath id="clip0_193_986">
<rect width="18" height="18" fill="white" style="fill:white;fill-opacity:1;" transform="translate(6 6)"/>
</clipPath>
</defs>
</svg>
