<svg width="151" height="41" viewBox="0 0 151 41" fill="none" xmlns="http://www.w3.org/2000/svg">
<path d="M123.927 0.689453H129.293L136.186 20.1579L143.172 0.689453H148.538L138.664 28.0943H133.634L123.927 0.689453Z" fill="#302E98"/>
<path d="M106.918 0C110.793 0 114.122 1.40347 116.904 4.2104C119.698 7.01733 121.096 10.4391 121.096 14.4756C121.096 18.4748 119.717 21.8593 116.96 24.629C114.215 27.3986 110.88 28.7835 106.955 28.7835C102.844 28.7835 99.4289 27.3614 96.7089 24.5172C93.9889 21.673 92.6289 18.2947 92.6289 14.3824C92.6289 11.7618 93.2623 9.3523 94.5292 7.15395C95.796 4.9556 97.5348 3.21679 99.7456 1.93753C101.969 0.645843 104.36 0 106.918 0ZM106.862 5.10464C104.329 5.10464 102.199 5.98647 100.472 7.75012C98.7458 9.51376 97.8826 11.7556 97.8826 14.4756C97.8826 17.5061 98.9693 19.9031 101.143 21.6668C102.832 23.0454 104.77 23.7347 106.955 23.7347C109.427 23.7347 111.532 22.8405 113.271 21.052C115.01 19.2635 115.879 17.059 115.879 14.4383C115.879 11.8301 115.004 9.62554 113.252 7.82464C111.501 6.01131 109.371 5.10464 106.862 5.10464Z" fill="#302E98"/>
<path d="M77.166 0.689453H82.3824V23.1201H89.9835V28.0943H77.166V0.689453Z" fill="#302E98"/>
<path d="M57.2688 0.689453H62.5598L73.1044 28.0943H67.683L65.5406 22.4494H54.3625L52.1269 28.0943H46.7056L57.2688 0.689453ZM59.9516 7.95519L56.3001 17.3634H63.5844L59.9516 7.95519Z" fill="#302E98"/>
<path d="M25.2998 0.689453H30.5721V10.1163L38.0055 0.689453H44.2839L34.708 12.9108L45.2154 28.0943H39.0302L30.5721 15.9289V28.0943H25.2998V0.689453Z" fill="#302E98"/>
<path d="M13.749 16.0965H11.9978C9.4765 16.0965 7.6135 15.9661 6.40875 15.7053C5.21642 15.4445 4.07378 14.8918 2.98081 14.0472C1.88785 13.1902 1.11781 12.1594 0.670683 10.9546C0.223561 9.73746 0 8.12907 0 6.12944V0.689453H5.29095V6.03629C5.29095 7.8993 5.62629 9.19719 6.29697 9.92998C6.96765 10.6628 8.39596 11.0292 10.5819 11.0292H13.749V0.689453H19.0027V28.0943H13.749V16.0965Z" fill="#302E98"/>
<rect width="151" height="12.0644" transform="translate(0 28.7837)" fill="#6F89C9"/>
<path d="M25.2547 31.7033V37.2935H24.4194V31.7033H25.2547ZM21.2285 37.2935L23.0191 34.3673L21.3541 31.7033H22.3859L23.7725 34.1217H25.9207L27.2964 31.7033H28.3254L26.6659 34.3728L28.4456 37.2935H27.4602L26.0544 34.9078H23.6278L22.203 37.2935H21.2285ZM31.7694 31.7033H32.6046V35.8086H32.6565L35.5007 31.7033H36.2814V37.2935H35.4379V33.1936H35.3861L32.5473 37.2935H31.7694V31.7033ZM39.5868 37.2935V36.5619L39.7505 36.5565C39.9725 36.551 40.1472 36.4755 40.2746 36.3299C40.4038 36.1843 40.4975 35.9496 40.5558 35.6257C40.6158 35.3018 40.6558 34.8696 40.6759 34.3291L40.7714 31.7033H44.3062V37.2935H43.4737V32.4184H41.5657L41.4784 34.553C41.4547 35.1516 41.3946 35.6548 41.2982 36.0624C41.2018 36.4682 41.038 36.7748 40.8069 36.9823C40.5776 37.1897 40.251 37.2935 39.827 37.2935H39.5868ZM52.8886 34.4984C52.8886 35.0952 52.7794 35.6084 52.561 36.0378C52.3426 36.4655 52.0433 36.7949 51.663 37.026C51.2845 37.2552 50.8541 37.3699 50.3719 37.3699C49.8878 37.3699 49.4557 37.2552 49.0753 37.026C48.6968 36.7949 48.3984 36.4646 48.18 36.0351C47.9617 35.6057 47.8525 35.0934 47.8525 34.4984C47.8525 33.9015 47.9617 33.3892 48.18 32.9616C48.3984 32.5322 48.6968 32.2028 49.0753 31.9735C49.4557 31.7424 49.8878 31.6268 50.3719 31.6268C50.8541 31.6268 51.2845 31.7424 51.663 31.9735C52.0433 32.2028 52.3426 32.5322 52.561 32.9616C52.7794 33.3892 52.8886 33.9015 52.8886 34.4984ZM52.0533 34.4984C52.0533 34.0434 51.9796 33.6604 51.8322 33.3492C51.6866 33.0362 51.4865 32.7997 51.2317 32.6395C50.9788 32.4776 50.6922 32.3966 50.3719 32.3966C50.0498 32.3966 49.7623 32.4776 49.5093 32.6395C49.2564 32.7997 49.0562 33.0362 48.9088 33.3492C48.7633 33.6604 48.6905 34.0434 48.6905 34.4984C48.6905 34.9533 48.7633 35.3373 48.9088 35.6502C49.0562 35.9614 49.2564 36.198 49.5093 36.3599C49.7623 36.5201 50.0498 36.6001 50.3719 36.6001C50.6922 36.6001 50.9788 36.5201 51.2317 36.3599C51.4865 36.198 51.6866 35.9614 51.8322 35.6502C51.9796 35.3373 52.0533 34.9533 52.0533 34.4984ZM56.4382 31.7033H57.2735V35.8086H57.3254L60.1696 31.7033H60.9502V37.2935H60.1068V33.1936H60.0549L57.2162 37.2935H56.4382V31.7033ZM59.2306 30.2839H59.9021C59.9021 30.5914 59.7929 30.8416 59.5745 31.0345C59.358 31.2256 59.065 31.3211 58.6956 31.3211C58.328 31.3211 58.036 31.2256 57.8194 31.0345C57.6029 30.8416 57.4946 30.5914 57.4946 30.2839H58.1633C58.1633 30.4204 58.2034 30.5414 58.2834 30.6469C58.3635 30.7506 58.5009 30.8025 58.6956 30.8025C58.8867 30.8025 59.0232 30.7506 59.105 30.6469C59.1888 30.5432 59.2306 30.4222 59.2306 30.2839ZM72.5275 37.2935L70.6495 34.7877H70.0545V37.2935H69.2111V31.7033H70.0545V34.0644H70.3302L72.4429 31.7033H73.4719L71.2364 34.2063L73.5566 37.2935H72.5275ZM81.4142 34.4984C81.4142 35.0952 81.305 35.6084 81.0867 36.0378C80.8683 36.4655 80.5689 36.7949 80.1886 37.026C79.8101 37.2552 79.3798 37.3699 78.8975 37.3699C78.4135 37.3699 77.9813 37.2552 77.601 37.026C77.2225 36.7949 76.924 36.4646 76.7057 36.0351C76.4873 35.6057 76.3781 35.0934 76.3781 34.4984C76.3781 33.9015 76.4873 33.3892 76.7057 32.9616C76.924 32.5322 77.2225 32.2028 77.601 31.9735C77.9813 31.7424 78.4135 31.6268 78.8975 31.6268C79.3798 31.6268 79.8101 31.7424 80.1886 31.9735C80.5689 32.2028 80.8683 32.5322 81.0867 32.9616C81.305 33.3892 81.4142 33.9015 81.4142 34.4984ZM80.579 34.4984C80.579 34.0434 80.5053 33.6604 80.3579 33.3492C80.2123 33.0362 80.0121 32.7997 79.7574 32.6395C79.5044 32.4776 79.2178 32.3966 78.8975 32.3966C78.5754 32.3966 78.2879 32.4776 78.035 32.6395C77.782 32.7997 77.5819 33.0362 77.4345 33.3492C77.2889 33.6604 77.2161 34.0434 77.2161 34.4984C77.2161 34.9533 77.2889 35.3373 77.4345 35.6502C77.5819 35.9614 77.782 36.198 78.035 36.3599C78.2879 36.5201 78.5754 36.6001 78.8975 36.6001C79.2178 36.6001 79.5044 36.5201 79.7574 36.3599C80.0121 36.198 80.2123 35.9614 80.3579 35.6502C80.5053 35.3373 80.579 34.9533 80.579 34.4984ZM84.9639 31.7033H85.9875L87.7672 36.0488H87.8327L89.6124 31.7033H90.636V37.2935H89.8335V33.2482H89.7816L88.1329 37.2853H87.4669L85.8183 33.2455H85.7664V37.2935H84.9639V31.7033ZM98.7304 31.7033V37.2935H97.8897V32.4239H95.2584V37.2935H94.4177V31.7033H98.7304ZM102.095 37.2935V36.5619L102.259 36.5565C102.481 36.551 102.656 36.4755 102.783 36.3299C102.912 36.1843 103.006 35.9496 103.064 35.6257C103.124 35.3018 103.164 34.8696 103.184 34.3291L103.28 31.7033H106.815V37.2935H105.982V32.4184H104.074L103.987 34.553C103.963 35.1516 103.903 35.6548 103.807 36.0624C103.71 36.4682 103.546 36.7748 103.315 36.9823C103.086 37.1897 102.759 37.2935 102.335 37.2935H102.095ZM110.541 37.2935V31.7033H114.046V32.4293H111.384V34.1326H113.863V34.8559H111.384V36.5674H114.079V37.2935H110.541ZM120.987 37.2935L119.109 34.7877H118.514V37.2935H117.671V31.7033H118.514V34.0644H118.79L120.902 31.7033H121.931L119.696 34.2063L122.016 37.2935H120.987ZM129.661 33.5212H128.809C128.776 33.3392 128.715 33.1791 128.626 33.0408C128.537 32.9025 128.428 32.7851 128.299 32.6886C128.17 32.5922 128.025 32.5194 127.865 32.4703C127.706 32.4212 127.538 32.3966 127.36 32.3966C127.038 32.3966 126.749 32.4776 126.495 32.6395C126.242 32.8015 126.041 33.0389 125.894 33.3519C125.748 33.6649 125.676 34.0471 125.676 34.4984C125.676 34.9533 125.748 35.3373 125.894 35.6502C126.041 35.9632 126.242 36.1998 126.497 36.3599C126.752 36.5201 127.039 36.6001 127.357 36.6001C127.534 36.6001 127.701 36.5765 127.859 36.5292C128.019 36.48 128.164 36.4082 128.293 36.3135C128.422 36.2189 128.532 36.1034 128.621 35.9669C128.712 35.8286 128.775 35.6703 128.809 35.4919L129.661 35.4947C129.615 35.7694 129.527 36.0224 129.396 36.2535C129.267 36.4828 129.1 36.6811 128.897 36.8485C128.695 37.0141 128.463 37.1424 128.203 37.2334C127.943 37.3244 127.659 37.3699 127.352 37.3699C126.868 37.3699 126.436 37.2552 126.058 37.026C125.679 36.7949 125.381 36.4646 125.162 36.0351C124.946 35.6057 124.838 35.0934 124.838 34.4984C124.838 33.9015 124.947 33.3892 125.165 32.9616C125.384 32.5322 125.682 32.2028 126.06 31.9735C126.439 31.7424 126.869 31.6268 127.352 31.6268C127.648 31.6268 127.925 31.6696 128.181 31.7551C128.44 31.8388 128.672 31.9626 128.877 32.1264C129.083 32.2883 129.253 32.4867 129.388 32.7214C129.523 32.9543 129.614 33.2209 129.661 33.5212Z" fill="#F9F9F9"/>
</svg>
