<svg width="30" height="30" viewBox="0 0 30 30" fill="none" xmlns="http://www.w3.org/2000/svg">
<circle cx="15" cy="15" r="15" fill="#F790A0" style="fill:#F790A0;fill:color(display-p3 0.9686 0.5647 0.6275);fill-opacity:1;"/>
<path d="M21.1875 9.59961H18.375V9.03711C18.375 8.58956 18.1972 8.16033 17.8807 7.84387C17.5643 7.5274 17.1351 7.34961 16.6875 7.34961H13.3125C12.8649 7.34961 12.4357 7.5274 12.1193 7.84387C11.8028 8.16033 11.625 8.58956 11.625 9.03711V9.59961H8.8125C8.51413 9.59961 8.22798 9.71814 8.017 9.92911C7.80603 10.1401 7.6875 10.4262 7.6875 10.7246V19.7246C7.6875 20.023 7.80603 20.3091 8.017 20.5201C8.22798 20.7311 8.51413 20.8496 8.8125 20.8496H21.1875C21.4859 20.8496 21.772 20.7311 21.983 20.5201C22.194 20.3091 22.3125 20.023 22.3125 19.7246V10.7246C22.3125 10.4262 22.194 10.1401 21.983 9.92911C21.772 9.71814 21.4859 9.59961 21.1875 9.59961ZM16.6875 15.7871H15.5625V16.9121C15.5625 17.0613 15.5032 17.2044 15.3977 17.3099C15.2923 17.4153 15.1492 17.4746 15 17.4746C14.8508 17.4746 14.7077 17.4153 14.6023 17.3099C14.4968 17.2044 14.4375 17.0613 14.4375 16.9121V15.7871H13.3125C13.1633 15.7871 13.0202 15.7278 12.9148 15.6224C12.8093 15.5169 12.75 15.3738 12.75 15.2246C12.75 15.0754 12.8093 14.9324 12.9148 14.8269C13.0202 14.7214 13.1633 14.6621 13.3125 14.6621H14.4375V13.5371C14.4375 13.3879 14.4968 13.2449 14.6023 13.1394C14.7077 13.0339 14.8508 12.9746 15 12.9746C15.1492 12.9746 15.2923 13.0339 15.3977 13.1394C15.5032 13.2449 15.5625 13.3879 15.5625 13.5371V14.6621H16.6875C16.8367 14.6621 16.9798 14.7214 17.0852 14.8269C17.1907 14.9324 17.25 15.0754 17.25 15.2246C17.25 15.3738 17.1907 15.5169 17.0852 15.6224C16.9798 15.7278 16.8367 15.7871 16.6875 15.7871ZM17.25 9.59961H12.75V9.03711C12.75 8.88793 12.8093 8.74485 12.9148 8.63936C13.0202 8.53387 13.1633 8.47461 13.3125 8.47461H16.6875C16.8367 8.47461 16.9798 8.53387 17.0852 8.63936C17.1907 8.74485 17.25 8.88793 17.25 9.03711V9.59961Z" fill="white" style="fill:white;fill-opacity:1;"/>
</svg>
