<svg width="32" height="33" viewBox="0 0 32 33" fill="none" xmlns="http://www.w3.org/2000/svg">
<path d="M24.1277 19.4694L20.0664 17.6494C19.8823 17.5705 19.6816 17.5388 19.4822 17.5571C19.2829 17.5754 19.0912 17.6432 18.9246 17.7543C18.9077 17.7651 18.8916 17.7772 18.8765 17.7904L16.7538 19.5958C16.7318 19.6078 16.7073 19.6145 16.6822 19.6154C16.6571 19.6163 16.6322 19.6114 16.6094 19.601C15.245 18.9424 13.8316 17.5376 13.1704 16.1921C13.1594 16.1696 13.1537 16.1449 13.1537 16.1199C13.1537 16.0949 13.1594 16.0702 13.1704 16.0477L14.9819 13.8984C14.9949 13.8824 15.007 13.8658 15.018 13.8485C15.1275 13.6813 15.1937 13.4894 15.2105 13.2902C15.2273 13.0911 15.1942 12.8908 15.1143 12.7076L13.3071 8.65312C13.2045 8.41378 13.027 8.21418 12.8013 8.08427C12.5756 7.95437 12.3139 7.90117 12.0554 7.93266C10.9319 8.08036 9.90063 8.63209 9.15431 9.48474C8.40798 10.3374 7.99765 11.4326 8.00001 12.5658C8.00001 19.2975 13.4765 24.774 20.2082 24.774C21.3413 24.7761 22.4364 24.3658 23.2891 23.6195C24.1417 22.8732 24.6934 21.842 24.8413 20.7186C24.8727 20.4613 24.8203 20.2007 24.6917 19.9757C24.5631 19.7506 24.3653 19.573 24.1277 19.4694ZM20.2082 23.7423C14.0457 23.7423 9.03169 18.7283 9.03169 12.5658C9.02882 11.6836 9.34721 10.8306 9.9274 10.1661C10.5076 9.50157 11.3099 9.07102 12.1843 8.95489H12.2041C12.2388 8.95553 12.2724 8.96663 12.3006 8.98673C12.3288 9.00683 12.3503 9.03498 12.3623 9.06751L14.1763 13.1177C14.1867 13.1402 14.192 13.1647 14.192 13.1895C14.192 13.2143 14.1867 13.2388 14.1763 13.2613L12.3614 15.4158C12.3479 15.4312 12.3355 15.4475 12.3245 15.4648C12.2109 15.6382 12.144 15.8379 12.1303 16.0447C12.1166 16.2515 12.1565 16.4584 12.2462 16.6452C13.0088 18.2065 14.5821 19.7677 16.1606 20.5303C16.3485 20.6195 16.5564 20.6585 16.7639 20.6434C16.9713 20.6284 17.1714 20.5598 17.3444 20.4444C17.3608 20.4332 17.3771 20.4211 17.3926 20.4082L19.5144 18.6028C19.5354 18.5915 19.5585 18.585 19.5823 18.5835C19.606 18.582 19.6298 18.5856 19.652 18.5942L23.7142 20.4143C23.7474 20.4284 23.7753 20.4526 23.794 20.4835C23.8126 20.5143 23.8211 20.5503 23.8182 20.5862C23.7027 21.4611 23.2726 22.264 22.6082 22.8448C21.9438 23.4256 21.0907 23.7447 20.2082 23.7423Z" fill="#464646" style="fill:#464646;fill:color(display-p3 0.2745 0.2745 0.2745);fill-opacity:1;"/>
</svg>
