<svg width="30" height="30" viewBox="0 0 30 30" fill="none" xmlns="http://www.w3.org/2000/svg">
<circle cx="15" cy="15" r="15" fill="#F7D04C" style="fill:#F7D04C;fill:color(display-p3 0.9686 0.8157 0.2980);fill-opacity:1;"/>
<path d="M21.3477 9.04135V21.9789C21.3477 22.128 21.2884 22.2711 21.1829 22.3766C21.0774 22.4821 20.9343 22.5414 20.7852 22.5414C20.636 22.5414 20.4929 22.4821 20.3874 22.3766C20.2819 22.2711 20.2227 22.128 20.2227 21.9789V18.6039H16.8477C16.6985 18.6039 16.5554 18.5446 16.4499 18.4391C16.3444 18.3336 16.2852 18.1905 16.2852 18.0414C16.3113 16.6939 16.4815 15.3532 16.7928 14.042C17.4805 11.195 18.7841 9.28674 20.5637 8.52456C20.6492 8.48792 20.7425 8.47307 20.8352 8.48134C20.9279 8.48962 21.017 8.52076 21.0947 8.57197C21.1724 8.62319 21.2362 8.69288 21.2803 8.77479C21.3245 8.85671 21.3476 8.9483 21.3477 9.04135ZM14.5899 8.94924C14.5789 8.87538 14.5533 8.80446 14.5146 8.7406C14.4759 8.67674 14.4248 8.62123 14.3644 8.57731C14.304 8.53339 14.2355 8.50193 14.1628 8.48477C14.0901 8.46762 14.0148 8.4651 13.9411 8.47738C13.8674 8.48966 13.797 8.51648 13.7338 8.55628C13.6706 8.59608 13.616 8.64807 13.5731 8.7092C13.5302 8.77034 13.4999 8.8394 13.484 8.91236C13.4681 8.98532 13.4669 9.06072 13.4804 9.13417L14.0274 12.4164H12.3477V9.04135C12.3477 8.89217 12.2884 8.74909 12.1829 8.64361C12.0774 8.53812 11.9343 8.47885 11.7852 8.47885C11.636 8.47885 11.4929 8.53812 11.3874 8.64361C11.2819 8.74909 11.2227 8.89217 11.2227 9.04135V12.4164H9.54289L10.0899 9.13417C10.1035 9.06072 10.1022 8.98532 10.0863 8.91236C10.0704 8.8394 10.0401 8.77034 9.99724 8.7092C9.95435 8.64807 9.89972 8.59608 9.83654 8.55628C9.77335 8.51648 9.70287 8.48966 9.62921 8.47738C9.55555 8.4651 9.48018 8.46762 9.4075 8.48477C9.33482 8.50193 9.26629 8.53339 9.20589 8.57731C9.1455 8.62123 9.09445 8.67674 9.05574 8.7406C9.01702 8.80446 8.99141 8.87538 8.98039 8.94924L8.41789 12.3242C8.41284 12.3547 8.41026 12.3855 8.41016 12.4164C8.41128 13.2136 8.69416 13.9847 9.20881 14.5936C9.72347 15.2024 10.4368 15.6097 11.2227 15.7435V21.9789C11.2227 22.128 11.2819 22.2711 11.3874 22.3766C11.4929 22.4821 11.636 22.5414 11.7852 22.5414C11.9343 22.5414 12.0774 22.4821 12.1829 22.3766C12.2884 22.2711 12.3477 22.128 12.3477 21.9789V15.7435C13.1336 15.6097 13.8468 15.2024 14.3615 14.5936C14.8762 13.9847 15.159 13.2136 15.1602 12.4164C15.1601 12.3855 15.1575 12.3547 15.1524 12.3242L14.5899 8.94924Z" fill="white" style="fill:white;fill-opacity:1;"/>
</svg>
