<svg width="30" height="30" viewBox="0 0 30 30" fill="none" xmlns="http://www.w3.org/2000/svg">
<circle cx="15" cy="15" r="15" fill="#AE8AF7" style="fill:#AE8AF7;fill:color(display-p3 0.6824 0.5412 0.9686);fill-opacity:1;"/>
<g clip-path="url(#clip0_193_1020)">
<path d="M12.9102 21.416C12.9102 21.6385 12.8442 21.856 12.7206 22.041C12.5969 22.226 12.4212 22.3702 12.2157 22.4554C12.0101 22.5405 11.7839 22.5628 11.5657 22.5194C11.3475 22.476 11.147 22.3688 10.9897 22.2115C10.8323 22.0542 10.7252 21.8537 10.6818 21.6355C10.6384 21.4173 10.6606 21.1911 10.7458 20.9855C10.8309 20.7799 10.9751 20.6042 11.1601 20.4806C11.3451 20.357 11.5627 20.291 11.7852 20.291C12.0835 20.291 12.3697 20.4095 12.5807 20.6205C12.7916 20.8315 12.9102 21.1176 12.9102 21.416ZM19.0977 20.291C18.8752 20.291 18.6576 20.357 18.4726 20.4806C18.2876 20.6042 18.1434 20.7799 18.0583 20.9855C17.9731 21.1911 17.9509 21.4173 17.9943 21.6355C18.0377 21.8537 18.1448 22.0542 18.3022 22.2115C18.4595 22.3688 18.66 22.476 18.8782 22.5194C19.0964 22.5628 19.3226 22.5405 19.5282 22.4554C19.7337 22.3702 19.9094 22.226 20.0331 22.041C20.1567 21.856 20.2227 21.6385 20.2227 21.416C20.2227 21.1176 20.1041 20.8315 19.8932 20.6205C19.6822 20.4095 19.396 20.291 19.0977 20.291ZM22.363 10.957C22.3107 10.8861 22.2424 10.8285 22.1638 10.7888C22.0851 10.7491 21.9983 10.7285 21.9102 10.7285H9.55766L8.98742 8.73164C8.91937 8.49704 8.77716 8.29079 8.58209 8.14376C8.38703 7.99673 8.14958 7.91683 7.90531 7.91602H6.72266C6.57347 7.91602 6.4304 7.97528 6.32491 8.08077C6.21942 8.18626 6.16016 8.32933 6.16016 8.47852C6.16016 8.6277 6.21942 8.77077 6.32491 8.87626C6.4304 8.98175 6.57347 9.04102 6.72266 9.04102H7.90531L10.4492 17.9419C10.551 18.2938 10.7641 18.6033 11.0565 18.8239C11.3489 19.0446 11.705 19.1646 12.0713 19.166H18.8291C19.1902 19.1673 19.5422 19.0521 19.8328 18.8375C20.1233 18.623 20.337 18.3205 20.442 17.9749L22.448 11.4562C22.4739 11.3722 22.4796 11.2832 22.4649 11.1965C22.4501 11.1098 22.4152 11.0278 22.363 10.957Z" fill="white" style="fill:white;fill-opacity:1;"/>
</g>
<defs>
<clipPath id="clip0_193_1020">
<rect width="18" height="18" fill="white" style="fill:white;fill-opacity:1;" transform="translate(6.16016 6.22852)"/>
</clipPath>
</defs>
</svg>
