<svg width="30" height="30" viewBox="0 0 30 30" fill="none" xmlns="http://www.w3.org/2000/svg">
<circle cx="15" cy="15" r="15" fill="#F1B183" style="fill:#F1B183;fill:color(display-p3 0.9451 0.6949 0.5137);fill-opacity:1;"/>
<path d="M17.2504 14.1827C17.2085 14.1217 17.1792 14.053 17.1639 13.9807C17.1487 13.9083 17.1479 13.8336 17.1615 13.7609C17.1752 13.6883 17.203 13.619 17.2435 13.5571C17.2839 13.4951 17.3362 13.4418 17.3973 13.4001L22.1546 10.1447C22.2779 10.0684 22.4258 10.0427 22.5675 10.0728C22.7092 10.1029 22.8339 10.1866 22.9155 10.3063C22.997 10.426 23.0293 10.5727 23.0054 10.7156C22.9816 10.8585 22.9035 10.9867 22.7875 11.0735L18.0294 14.329C17.9684 14.3707 17.8998 14.3999 17.8275 14.4151C17.7552 14.4303 17.6806 14.4311 17.608 14.4174C17.5354 14.4038 17.4662 14.376 17.4044 14.3356C17.3425 14.2952 17.2892 14.243 17.2475 14.182L17.2504 14.1827ZM22.9365 20.1642C22.8948 20.2252 22.8415 20.2774 22.7797 20.3178C22.7178 20.3582 22.6486 20.386 22.576 20.3996C22.5034 20.4133 22.4288 20.4125 22.3565 20.3973C22.2842 20.3821 22.2156 20.3528 22.1546 20.3111L15.7225 15.9096L12.7328 17.955C12.9605 18.5342 12.9669 19.177 12.7507 19.7607C12.5345 20.3443 12.1108 20.8278 11.5607 21.1188C11.0105 21.4098 10.3724 21.488 9.76826 21.3382C9.16414 21.1885 8.63635 20.8215 8.28573 20.3073C7.93511 19.793 7.78624 19.1676 7.86757 18.5506C7.94889 17.9335 8.25471 17.368 8.72659 16.9622C9.19847 16.5564 9.80334 16.3386 10.4256 16.3505C11.0479 16.3625 11.644 16.6032 12.1 17.0268L14.7261 15.2283L12.0979 13.4297C11.6419 13.8533 11.0458 14.0941 10.4235 14.106C9.80123 14.1179 9.19637 13.9002 8.72448 13.4943C8.2526 13.0885 7.94678 12.523 7.86546 11.9059C7.78413 11.2889 7.933 10.6635 8.28362 10.1493C8.63424 9.63501 9.16203 9.26797 9.76615 9.11827C10.3703 8.96856 11.0084 9.04667 11.5585 9.33769C12.1087 9.6287 12.5324 10.1122 12.7486 10.6958C12.9648 11.2795 12.9584 11.9223 12.7307 12.5015L22.7854 19.3823C22.8467 19.4237 22.8992 19.4767 22.94 19.5384C22.9808 19.6001 23.0091 19.6693 23.0231 19.7419C23.0372 19.8145 23.0367 19.8892 23.0219 19.9617C23.007 20.0341 22.978 20.103 22.9365 20.1642ZM11.2225 18.8845C11.2225 18.7176 11.173 18.5545 11.0803 18.4157C10.9876 18.277 10.8558 18.1688 10.7016 18.105C10.5474 18.0411 10.3778 18.0244 10.2141 18.057C10.0504 18.0895 9.90009 18.1699 9.78209 18.2879C9.66409 18.4059 9.58373 18.5562 9.55117 18.7199C9.51862 18.8836 9.53533 19.0532 9.59919 19.2074C9.66305 19.3616 9.7712 19.4933 9.90995 19.5861C10.0487 19.6788 10.2118 19.7283 10.3787 19.7283C10.6025 19.7283 10.8171 19.6394 10.9753 19.4811C11.1336 19.3229 11.2225 19.1083 11.2225 18.8845ZM11.2225 11.572C11.2225 11.4051 11.173 11.242 11.0803 11.1032C10.9876 10.9645 10.8558 10.8563 10.7016 10.7925C10.5474 10.7286 10.3778 10.7119 10.2141 10.7445C10.0504 10.777 9.90009 10.8574 9.78209 10.9754C9.66409 11.0934 9.58373 11.2437 9.55117 11.4074C9.51862 11.5711 9.53533 11.7407 9.59919 11.8949C9.66305 12.0491 9.7712 12.1808 9.90995 12.2736C10.0487 12.3663 10.2118 12.4158 10.3787 12.4158C10.6025 12.4158 10.8171 12.3269 10.9753 12.1686C11.1336 12.0104 11.2225 11.7958 11.2225 11.572Z" fill="white" style="fill:white;fill-opacity:1;"/>
</svg>
