<svg width="30" height="30" viewBox="0 0 30 30" fill="none" xmlns="http://www.w3.org/2000/svg">
<circle cx="15" cy="15" r="15" fill="#8B8FA2" style="fill:#8B8FA2;fill:color(display-p3 0.5451 0.5608 0.6353);fill-opacity:1;"/>
<g clip-path="url(#clip0_193_1036)">
<path d="M20.3645 10.9502V19.9502C20.3645 20.2486 20.246 20.5347 20.035 20.7457C19.824 20.9567 19.5379 21.0752 19.2395 21.0752H18.1145C17.8161 21.0752 17.53 20.9567 17.319 20.7457C17.108 20.5347 16.9895 20.2486 16.9895 19.9502V16.0127H13.6145V19.9502C13.6145 20.2486 13.496 20.5347 13.285 20.7457C13.074 20.9567 12.7879 21.0752 12.4895 21.0752H11.3645C11.0661 21.0752 10.78 20.9567 10.569 20.7457C10.358 20.5347 10.2395 20.2486 10.2395 19.9502V10.9502C10.2395 10.6518 10.358 10.3657 10.569 10.1547C10.78 9.94372 11.0661 9.8252 11.3645 9.8252H12.4895C12.7879 9.8252 13.074 9.94372 13.285 10.1547C13.496 10.3657 13.6145 10.6518 13.6145 10.9502V14.8877H16.9895V10.9502C16.9895 10.6518 17.108 10.3657 17.319 10.1547C17.53 9.94372 17.8161 9.8252 18.1145 9.8252H19.2395C19.5379 9.8252 19.824 9.94372 20.035 10.1547C20.246 10.3657 20.3645 10.6518 20.3645 10.9502ZM8.83327 11.5127H8.55202C8.25365 11.5127 7.9675 11.6312 7.75652 11.8422C7.54554 12.0532 7.42702 12.3393 7.42702 12.6377V14.8877H6.8835C6.73814 14.8855 6.59736 14.9385 6.48948 15.036C6.3816 15.1334 6.31462 15.2681 6.30202 15.4129C6.29691 15.4899 6.30767 15.567 6.33365 15.6397C6.35962 15.7123 6.40024 15.7787 6.45299 15.835C6.50574 15.8912 6.56949 15.936 6.64029 15.9666C6.71108 15.9972 6.78741 16.0129 6.86452 16.0127H7.42702V18.2627C7.42702 18.5611 7.54554 18.8472 7.75652 19.0582C7.9675 19.2692 8.25365 19.3877 8.55202 19.3877H8.83327C8.90786 19.3877 8.9794 19.3581 9.03214 19.3053C9.08489 19.2526 9.11452 19.181 9.11452 19.1064V11.7939C9.11452 11.7194 9.08489 11.6478 9.03214 11.5951C8.9794 11.5423 8.90786 11.5127 8.83327 11.5127ZM24.302 15.4129C24.2894 15.2683 24.2227 15.1339 24.1151 15.0365C24.0075 14.939 23.8671 14.8859 23.7219 14.8877H23.177V12.6377C23.177 12.3393 23.0585 12.0532 22.8475 11.8422C22.6365 11.6312 22.3504 11.5127 22.052 11.5127H21.7708C21.6962 11.5127 21.6246 11.5423 21.5719 11.5951C21.5191 11.6478 21.4895 11.7194 21.4895 11.7939V19.1064C21.4895 19.181 21.5191 19.2526 21.5719 19.3053C21.6246 19.3581 21.6962 19.3877 21.7708 19.3877H22.052C22.3504 19.3877 22.6365 19.2692 22.8475 19.0582C23.0585 18.8472 23.177 18.5611 23.177 18.2627V16.0127H23.7395C23.8166 16.0129 23.893 15.9972 23.9637 15.9666C24.0345 15.936 24.0983 15.8912 24.151 15.835C24.2038 15.7787 24.2444 15.7123 24.2704 15.6397C24.2964 15.567 24.3071 15.4899 24.302 15.4129Z" fill="white" style="fill:white;fill-opacity:1;"/>
</g>
<defs>
<clipPath id="clip0_193_1036">
<rect width="18" height="18" fill="white" style="fill:white;fill-opacity:1;" transform="translate(6.30078 6.4502)"/>
</clipPath>
</defs>
</svg>
