<svg width="30" height="30" viewBox="0 0 30 30" fill="none" xmlns="http://www.w3.org/2000/svg">
<circle cx="15" cy="15" r="15" fill="#4CC5A0" style="fill:#4CC5A0;fill:color(display-p3 0.2980 0.7725 0.6275);fill-opacity:1;"/>
<g clip-path="url(#clip0_193_1004)">
<path fill-rule="evenodd" clip-rule="evenodd" d="M14.7371 7.64058C14.5356 7.68375 14.0338 7.93097 10.3074 9.8229C7.34203 11.3284 6.23454 11.907 6.15227 11.9936C5.95445 12.2019 5.95445 12.525 6.15227 12.7333C6.23458 12.8199 7.34119 13.3979 10.3074 14.9034C12.531 16.0321 14.4209 16.9835 14.5072 17.0176C14.7411 17.1102 15.0834 17.1285 15.342 17.0622C15.4848 17.0256 16.6486 16.4527 18.707 15.4055C20.4377 14.5252 21.8622 13.8048 21.8725 13.8048C21.8829 13.8048 21.8914 15.1593 21.8914 16.8147C21.8914 19.8153 21.8916 19.825 21.9658 19.957C22.0526 20.1115 22.2569 20.2384 22.4187 20.2384C22.5805 20.2384 22.7848 20.1115 22.8716 19.957C22.946 19.8247 22.9461 19.8205 22.9461 16.5337V13.2429L23.3591 13.0353C23.7862 12.8207 23.8798 12.7462 23.9781 12.5426C24.039 12.4166 24.0581 12.1698 24.0045 12.2029C23.9872 12.2136 23.9641 12.1864 23.953 12.1425C23.942 12.0986 23.8889 12.0209 23.8351 11.9698C23.6967 11.8386 15.6077 7.7335 15.3609 7.66919C15.1726 7.62015 14.8924 7.60728 14.7371 7.64058ZM6.01031 12.3634C6.01031 12.4504 6.01717 12.4861 6.02557 12.4425C6.03394 12.399 6.03394 12.3279 6.02557 12.2843C6.01717 12.2408 6.01031 12.2764 6.01031 12.3634ZM9.28104 15.8233L9.18239 15.9081L9.17174 17.9239C9.16485 19.235 9.17378 19.9831 9.19733 20.0641C9.21727 20.1326 9.27742 20.2301 9.33103 20.2807C9.38461 20.3314 10.1008 20.7126 10.9226 21.1278C12.0847 21.7151 12.5144 21.9145 12.8562 22.025C14.3402 22.5051 15.7076 22.5005 17.1801 22.0106C17.5511 21.8871 17.9721 21.6918 19.1136 21.1133C19.9163 20.7066 20.6169 20.3322 20.6705 20.2813C20.7241 20.2303 20.7842 20.1326 20.8042 20.0641C20.8277 19.9831 20.8367 19.235 20.8298 17.9239L20.8191 15.9081L20.7205 15.8233C20.6571 15.7687 20.5781 15.7384 20.4995 15.7384C20.4085 15.7384 19.8204 16.0219 18.2 16.847C17.0025 17.4567 15.955 17.9799 15.8721 18.0096C15.6365 18.0943 15.228 18.1643 14.9713 18.164C14.7258 18.1637 14.273 18.0695 14.034 17.969C13.9566 17.9365 12.9338 17.4213 11.7611 16.8241C9.46916 15.6572 9.47257 15.6585 9.28104 15.8233Z" fill="white" style="fill:white;fill-opacity:1;"/>
</g>
<defs>
<clipPath id="clip0_193_1004">
<rect width="18" height="18" fill="white" style="fill:white;fill-opacity:1;" transform="translate(6 6)"/>
</clipPath>
</defs>
</svg>
