<svg width="27" height="26" viewBox="0 0 27 26" fill="none" xmlns="http://www.w3.org/2000/svg">
<g clip-path="url(#clip0_385_57)">
<path d="M26.2984 12.9998C26.2984 15.5611 25.5389 18.0648 24.116 20.1944C22.693 22.3241 20.6705 23.9839 18.3042 24.964C15.9379 25.9442 13.3341 26.2006 10.822 25.701C8.30997 25.2013 6.0025 23.9679 4.19141 22.1568C2.38032 20.3457 1.14695 18.0383 0.647274 15.5262C0.147595 13.0142 0.404049 10.4104 1.3842 8.04405C2.36436 5.67775 4.02419 3.65524 6.15381 2.23227C8.28343 0.809309 10.7872 0.0498052 13.3484 0.0498052C15.0492 0.0493268 16.7334 0.383962 18.3048 1.03459C19.8761 1.68522 21.3039 2.63909 22.5065 3.8417C23.7092 5.04432 24.663 6.47211 25.3137 8.04349C25.9643 9.61487 26.2989 11.2991 26.2984 12.9998Z" fill="#30A3E6" style="fill:#30A3E6;fill:color(display-p3 0.1882 0.6392 0.9020);fill-opacity:1;"/>
<path d="M10.9727 18.9353C10.5519 18.9353 10.6273 18.7735 10.4762 18.374L9.24609 14.3168L16.8866 9.54688L17.7822 9.78432L17.0377 11.8128L10.9727 18.9353Z" fill="#C8DAEA" style="fill:#C8DAEA;fill:color(display-p3 0.7843 0.8549 0.9176);fill-opacity:1;"/>
<path d="M10.9727 18.9353C11.0979 18.9328 11.2209 18.9024 11.333 18.8464C11.445 18.7904 11.5431 18.7102 11.6202 18.6115C11.9008 18.3418 15.5051 14.8346 15.5051 14.8346L13.293 14.2949L11.2426 15.5898L10.9727 18.8274V18.9353Z" fill="#A9C9DD" style="fill:#A9C9DD;fill:color(display-p3 0.6627 0.7882 0.8667);fill-opacity:1;"/>
<path d="M11.1914 15.6329L16.4135 19.4855C17.007 19.8093 17.4387 19.6472 17.5898 18.9352L19.7163 8.92054C19.9322 8.04646 19.3819 7.65792 18.8097 7.91695L6.33515 12.73C5.48265 13.0754 5.49332 13.5502 6.18405 13.7552L9.38911 14.7588L16.8036 10.0859C17.149 9.87004 17.4727 9.98889 17.2137 10.2261L11.1914 15.6329Z" fill="url(#paint0_linear_385_57)" style=""/>
</g>
<defs>
<linearGradient id="paint0_linear_385_57" x1="14.3135" y1="12.8087" x2="16.3448" y2="8.20233" gradientUnits="userSpaceOnUse">
<stop stop-color="#EFF7FC" style="stop-color:#EFF7FC;stop-color:color(display-p3 0.9373 0.9686 0.9882);stop-opacity:1;"/>
<stop offset="1" stop-color="white" style="stop-color:white;stop-opacity:1;"/>
</linearGradient>
<clipPath id="clip0_385_57">
<rect width="25.9" height="25.9" fill="white" style="fill:white;fill-opacity:1;" transform="translate(0.398438 0.0498047)"/>
</clipPath>
</defs>
</svg>
