<svg width="23" height="23" viewBox="0 0 23 23" fill="none" xmlns="http://www.w3.org/2000/svg">
<g clip-path="url(#clip0_193_420)">
<path fill-rule="evenodd" clip-rule="evenodd" d="M16.2254 1.05909C12.8905 0.313638 9.43227 0.313638 6.09744 1.05909L5.73811 1.13858C4.80006 1.34831 3.93852 1.81398 3.24918 2.48385C2.55984 3.15373 2.06971 4.00159 1.83321 4.93325C0.987888 8.26421 0.987888 11.7535 1.83321 15.0845C2.05875 15.973 2.5152 16.7861 3.15629 17.4414C3.79738 18.0966 4.60033 18.5707 5.48372 18.8156L5.9766 21.758C5.99234 21.8515 6.03283 21.939 6.09387 22.0114C6.15491 22.0839 6.23426 22.1387 6.32366 22.1701C6.41306 22.2015 6.50924 22.2083 6.60219 22.1899C6.69513 22.1715 6.78144 22.1285 6.85213 22.0654L9.74689 19.4759C11.9199 19.6085 14.1008 19.4348 16.2254 18.9597L16.5858 18.8802C17.5238 18.6705 18.3854 18.2048 19.0747 17.535C19.764 16.8651 20.2542 16.0172 20.4907 15.0856C21.3359 11.7546 21.3359 8.26528 20.4907 4.93431C20.2541 4.00251 19.7638 3.15456 19.0743 2.48467C18.3847 1.81478 17.5229 1.34919 16.5847 1.13964L16.2254 1.05909ZM6.99205 4.84739C6.79505 4.81872 6.59417 4.85837 6.42285 4.95975H6.40801C6.01052 5.19294 5.65225 5.48655 5.34699 5.8321C5.09259 6.12571 4.9548 6.42249 4.91876 6.70868C4.89756 6.87828 4.9124 7.04999 4.96222 7.21217L4.9813 7.22277C5.26749 8.06332 5.64059 8.87207 6.09638 9.63312C6.68408 10.7021 7.40729 11.6907 8.2481 12.5745L8.27354 12.6106L8.31382 12.6402L8.3382 12.6689L8.36788 12.6943C9.25478 13.5376 10.2457 14.2643 11.3167 14.8566C12.5409 15.5233 13.284 15.8381 13.7302 15.9696V15.9759C13.8606 16.0162 13.9793 16.0342 14.0991 16.0342C14.4791 16.0061 14.8388 15.8517 15.1209 15.5954C15.4654 15.2901 15.7569 14.9308 15.9837 14.5312V14.5238C16.1968 14.121 16.1247 13.7415 15.8173 13.484C15.1999 12.9445 14.5322 12.4653 13.8235 12.053C13.3486 11.7954 12.8664 11.9513 12.6713 12.212L12.2548 12.7377C12.0406 12.9985 11.6527 12.9625 11.6527 12.9625L11.6421 12.9688C8.74734 12.23 7.97463 9.29923 7.97463 9.29923C7.97463 9.29923 7.93859 8.90069 8.20676 8.69717L8.72826 8.27743C8.97841 8.07392 9.15225 7.59269 8.88408 7.11783C8.47451 6.40846 7.9963 5.74102 7.45631 5.1251C7.33854 4.98015 7.17337 4.88142 6.98993 4.84633L6.99205 4.84739ZM11.8827 3.57332C11.7422 3.57332 11.6073 3.62915 11.508 3.72854C11.4086 3.82794 11.3527 3.96274 11.3527 4.1033C11.3527 4.24386 11.4086 4.37866 11.508 4.47805C11.6073 4.57744 11.7422 4.63328 11.8827 4.63328C13.2236 4.63328 14.3365 5.07104 15.2174 5.91053C15.67 6.3695 16.0229 6.91326 16.254 7.50896C16.4861 8.10571 16.5921 8.74275 16.5646 9.38085C16.5616 9.45045 16.5725 9.51994 16.5964 9.58536C16.6203 9.65078 16.6569 9.71084 16.7041 9.76212C16.7993 9.86569 16.9317 9.92719 17.0723 9.93309C17.2128 9.93899 17.35 9.88882 17.4536 9.7936C17.5571 9.69838 17.6186 9.56593 17.6245 9.42537C17.6574 8.64045 17.5271 7.85725 17.2419 7.12525C16.9554 6.38978 16.5211 5.72093 15.9657 5.16008L15.9551 5.14948C14.8623 4.10542 13.479 3.57332 11.8827 3.57332ZM11.8467 5.31589C11.7061 5.31589 11.5713 5.37173 11.4719 5.47112C11.3725 5.57051 11.3167 5.70532 11.3167 5.84588C11.3167 5.98644 11.3725 6.12124 11.4719 6.22063C11.5713 6.32002 11.7061 6.37586 11.8467 6.37586H11.8647C12.8314 6.44475 13.5352 6.76698 14.0281 7.2959C14.5337 7.84072 14.7955 8.51804 14.7753 9.35541C14.7721 9.49597 14.8249 9.63206 14.922 9.73373C15.0191 9.83541 15.1526 9.89435 15.2931 9.89758C15.4337 9.90081 15.5698 9.84808 15.6715 9.75097C15.7731 9.65387 15.8321 9.52035 15.8353 9.37979C15.8607 8.28061 15.5067 7.33194 14.805 6.57513V6.57301C14.0874 5.80348 13.1027 5.39645 11.9177 5.31695L11.8997 5.31483L11.8467 5.31589ZM11.8265 7.09133C11.7556 7.08507 11.6841 7.09317 11.6164 7.11514C11.5487 7.13711 11.4861 7.1725 11.4323 7.2192C11.3786 7.2659 11.3348 7.32295 11.3036 7.38695C11.2724 7.45095 11.2544 7.52058 11.2507 7.59168C11.247 7.66279 11.2576 7.73391 11.282 7.80081C11.3064 7.8677 11.344 7.92899 11.3926 7.98103C11.4412 8.03306 11.4998 8.07477 11.5649 8.10366C11.63 8.13255 11.7002 8.14803 11.7714 8.14917C12.2145 8.17249 12.4975 8.30605 12.6756 8.48518C12.8547 8.66537 12.9883 8.95474 13.0126 9.40735C13.014 9.47847 13.0296 9.5486 13.0586 9.61355C13.0876 9.67851 13.1294 9.73696 13.1814 9.78543C13.2335 9.83389 13.2948 9.87138 13.3617 9.89566C13.4285 9.91993 13.4996 9.9305 13.5706 9.92673C13.6417 9.92295 13.7112 9.90492 13.7751 9.8737C13.839 9.84248 13.896 9.79871 13.9427 9.745C13.9893 9.69129 14.0247 9.62875 14.0466 9.56108C14.0686 9.49342 14.0767 9.42203 14.0705 9.35117C14.0366 8.71519 13.8373 8.15341 13.4292 7.74003C13.019 7.32664 12.4604 7.12525 11.8265 7.09133Z" fill="#7360F2" style="fill:#7360F2;fill:color(display-p3 0.4510 0.3765 0.9490);fill-opacity:1;"/>
</g>
<defs>
<clipPath id="clip0_193_420">
<rect width="21.7" height="21.7" fill="white" style="fill:white;fill-opacity:1;" transform="translate(0.5 0.5)"/>
</clipPath>
</defs>
</svg>
