<svg width="28" height="28" viewBox="0 0 28 28" fill="none" xmlns="http://www.w3.org/2000/svg">
<g clip-path="url(#clip0_223_11014)">
<path d="M0 13.4167C0 7.09199 0 3.92965 1.96482 1.96482C3.92965 0 7.09199 0 13.4167 0H14.5833C20.908 0 24.0704 0 26.0352 1.96482C28 3.92965 28 7.09199 28 13.4167V14.5833C28 20.908 28 24.0704 26.0352 26.0352C24.0704 28 20.908 28 14.5833 28H13.4167C7.09199 28 3.92965 28 1.96482 26.0352C0 24.0704 0 20.908 0 14.5833L0 13.4167Z" fill="#6F89C9" style="fill:#6F89C9;fill:color(display-p3 0.4353 0.5373 0.7882);fill-opacity:1;"/>
<path fill-rule="evenodd" clip-rule="evenodd" d="M7.58215 8.75H5.54002C4.95655 8.75 4.83984 9.02463 4.83984 9.32738C4.83984 9.86819 5.53218 12.5503 8.06346 16.0976C9.75099 18.5201 12.1285 19.8333 14.2921 19.8333C15.5902 19.8333 15.7507 19.5417 15.7507 19.0393V17.2083C15.7507 16.625 15.8737 16.5086 16.2847 16.5086C16.5877 16.5086 17.1069 16.66 18.3185 17.828C19.7031 19.2123 19.9314 19.8333 20.7102 19.8333H22.7523C23.3358 19.8333 23.6276 19.5417 23.4593 18.9661C23.2751 18.3924 22.614 17.5601 21.7368 16.5735C21.2608 16.0111 20.5469 15.4055 20.3305 15.1026C20.0276 14.7133 20.1141 14.5402 20.3305 14.1942C20.3305 14.1942 22.8185 10.6901 23.0782 9.50052C23.208 9.06786 23.0782 8.75 22.4606 8.75H20.4185C19.8992 8.75 19.6598 9.02463 19.53 9.32738C19.53 9.32738 18.4915 11.8581 17.0204 13.502C16.5444 13.9778 16.328 14.1293 16.0684 14.1293C15.9386 14.1293 15.7507 13.9778 15.7507 13.5453V9.50052C15.7507 8.98135 15.6 8.75 15.1672 8.75H11.9581C11.6337 8.75 11.4385 8.99092 11.4385 9.21929C11.4385 9.71139 12.1741 9.82491 12.2499 11.2092V14.2158C12.2499 14.875 12.1308 14.9945 11.8712 14.9945C11.1789 14.9945 9.4949 12.4525 8.49612 9.54374C8.30041 8.97838 8.10406 8.75 7.58215 8.75Z" fill="white" style="fill:white;fill-opacity:1;"/>
</g>
<defs>
<clipPath id="clip0_223_11014">
<rect width="28" height="28" fill="white" style="fill:white;fill-opacity:1;"/>
</clipPath>
</defs>
</svg>
