<svg width="23" height="22" viewBox="0 0 23 22" fill="none" xmlns="http://www.w3.org/2000/svg">
<g clip-path="url(#clip0_193_416)">
<path d="M11.3527 0.149414H11.3473C5.36488 0.149414 0.500014 5.01564 0.500014 10.9994C0.496299 13.2847 1.21971 15.5119 2.56558 17.3589L1.2134 21.3896L5.38387 20.0565C7.15292 21.2301 9.22976 21.854 11.3527 21.8494C17.3351 21.8494 22.2 16.9818 22.2 10.9994C22.2 5.017 17.3351 0.149414 11.3527 0.149414Z" fill="#25D366" style="fill:#25D366;fill:color(display-p3 0.1451 0.8275 0.4000);fill-opacity:1;"/>
<path d="M17.6668 15.4713C17.405 16.2105 16.3661 16.8235 15.5375 17.0025C14.9706 17.1233 14.23 17.2195 11.7373 16.1861C8.54871 14.8651 6.49535 11.625 6.33531 11.4148C6.18206 11.2046 5.04688 9.69914 5.04688 8.14217C5.04688 6.58519 5.83757 5.82705 6.15629 5.50155C6.41804 5.23437 6.85069 5.1123 7.2657 5.1123C7.39997 5.1123 7.52067 5.11909 7.62917 5.12451C7.94789 5.13807 8.10793 5.15706 8.31815 5.66023C8.57991 6.29089 9.21734 7.84786 9.29329 8.0079C9.3706 8.16794 9.44791 8.38494 9.33941 8.59516C9.23769 8.81216 9.14817 8.90845 8.98814 9.0929C8.8281 9.27735 8.6762 9.4184 8.51616 9.61641C8.36969 9.78865 8.20422 9.9731 8.38867 10.2918C8.57312 10.6038 9.21056 11.644 10.1491 12.4795C11.3602 13.5577 12.3421 13.9022 12.6934 14.0486C12.9552 14.1571 13.2671 14.1314 13.4583 13.9279C13.7011 13.6662 14.0008 13.2322 14.306 12.805C14.523 12.4984 14.797 12.4605 15.0845 12.569C15.3774 12.6707 16.9276 13.437 17.2463 13.5956C17.5651 13.7557 17.7753 13.8316 17.8526 13.9659C17.9285 14.1002 17.9285 14.7308 17.6668 15.4713Z" fill="#FAFAFA" style="fill:#FAFAFA;fill:color(display-p3 0.9804 0.9804 0.9804);fill-opacity:1;"/>
</g>
<defs>
<clipPath id="clip0_193_416">
<rect width="21.7" height="21.7" fill="white" style="fill:white;fill-opacity:1;" transform="translate(0.5 0.149414)"/>
</clipPath>
</defs>
</svg>
