<svg width="40" height="28" viewBox="0 0 40 28" fill="none" xmlns="http://www.w3.org/2000/svg">
<g clip-path="url(#clip0_223_11017)">
<path d="M39.0454 4.37229C38.5868 2.65119 37.2357 1.2959 35.5198 0.835936C32.4099 0 19.9394 -1.90735e-06 19.9394 -1.90735e-06C19.9394 -1.90735e-06 7.46896 0 4.359 0.835936C2.64324 1.2959 1.29188 2.65119 0.833315 4.37229C0 7.49165 0 14 0 14C0 14 0 20.5083 0.833315 23.6279C1.29188 25.3488 2.64324 26.7041 4.359 27.1643C7.46896 28 19.9394 28 19.9394 28C19.9394 28 32.4099 28 35.5198 27.1643C37.2357 26.7041 38.5868 25.3488 39.0454 23.6279C39.8788 20.5083 39.8788 14 39.8788 14C39.8788 14 39.8788 7.49165 39.0454 4.37229Z" fill="#6F89C9" style="fill:#6F89C9;fill:color(display-p3 0.4353 0.5373 0.7882);fill-opacity:1;"/>
<path d="M15.8594 19.9091L26.2822 14.0003L15.8594 8.09091V19.9091Z" fill="white" style="fill:white;fill-opacity:1;"/>
</g>
<defs>
<clipPath id="clip0_223_11017">
<rect width="39.8788" height="28" fill="white" style="fill:white;fill-opacity:1;"/>
</clipPath>
</defs>
</svg>
